<?xml version="1.0" encoding="utf-8"?>
<!-- Svg Vector Icons : http://www.onlinewebfonts.com/icon -->
<!DOCTYPE svg PUBLIC "-//W3C//DTD SVG 1.1//EN" "http://www.w3.org/Graphics/SVG/1.1/DTD/svg11.dtd">
<svg version="1.1" xmlns="http://www.w3.org/2000/svg" xmlns:xlink="http://www.w3.org/1999/xlink" x="0px" y="0px" viewBox="0 0 1000 1000" enable-background="new 0 0 1000 1000" xml:space="preserve">
<metadata> Svg Vector Icons : http://www.onlinewebfonts.com/icon </metadata>
<g><path d="M990,876.7c0,30.7-12.3,73.4-67.3,73.4H77.3c-55.1,0-67.3-42.8-67.3-73.4c0-104.1,91.9-251.1,257.3-251.1c0,0,49,79.5,232.8,79.5s232.8-79.5,232.8-79.5C898.2,625.6,990,772.6,990,876.7L990,876.7L990,876.7L990,876.7z"/><path d="M505.4,49.9c-142,0-257,128.7-257,287.3s115.1,287.3,257,287.3c141.9,0,257-128.7,257-287.3C762.4,178.6,647.3,49.9,505.4,49.9L505.4,49.9L505.4,49.9L505.4,49.9z"/></g>
</svg>